<svg id="Capa_1" enable-background="new 0 0 483.4 483.4" height="512" viewBox="0 0 483.4 483.4" width="512" xmlns="http://www.w3.org/2000/svg"><g><path d="m475.9 333.701c4.142 0 7.5-3.357 7.5-7.5v-32.831c0-4.143-3.358-7.5-7.5-7.5h-156.13c-4.142 0-7.5 3.357-7.5 7.5v31.125c-1.108-.476-2.164-5.273-2.808-6.617-1.44-3.007-3.328-5.787-5.602-8.227-4.58-4.915-10.652-8.37-17.23-9.75v-42.091c0-22.91-18.639-41.549-41.55-41.549h-12.096l6.833-59.867h42.523c4.376 0 8.769-.441 13.057-1.313l64.562-13.125c1.379-.281 2.691-.966 3.705-1.944l34.209-32.906c9.525-9.163.304-25.493-12.467-22.075l-92.997 20.771c-3.307.672-6.695 1.013-10.069 1.013h-45.192c-.026 0-.051-.004-.077-.004h-4.863c2.803-4.65 4.419-10.092 4.419-15.905v-18.628c21.748-7.429 16.248-40.66-6.73-40.66h-33.837c-11.713 0-21.243 9.529-21.243 21.243v38.043c0 5.813 1.616 11.256 4.419 15.905-13.776-.079-25.929 4.483-37.651 11.327-3.577 2.088-4.784 6.681-2.696 10.258 1.395 2.389 3.905 3.72 6.484 3.72 1.284 0 2.586-.33 3.774-1.024 9.253-5.401 18.676-9.28 29.598-9.28l103.596.004c4.376 0 8.769-.441 13.057-1.313l55.568-11.297v19.273l-58.556 11.904c-3.307.672-6.695 1.013-10.069 1.013h-49.216c-3.782 0-7.084 2.964-7.461 6.735l-7.775 68.122h-58.962l6.817-59.729c.668-5.857-5.751-10.241-10.964-7.478-18.847 9.989-37.789 18.681-45.675 40.327l-9.792 26.88h-23.05l16.929-42.578c4.658-11.717 13.929-18.044 24.316-24.109 3.577-2.089 4.783-6.682 2.694-10.259s-6.682-4.783-10.259-2.694c-13.337 7.789-24.774 16.641-30.69 31.521l-21.013 52.85c-.539 1.349-.67 2.964-.364 4.367l5.063 23.289c3.669 16.876 27.186 19.953 35.046 4.534l13.26-26.011c.158-.31.289-.628.401-.951l11.55-31.703c4.66-12.792 14.597-19.483 26.028-25.542l-6.019 52.735-29.743 63.759c-2.061 4.415-4.8 8.334-7.92 12.054l-31.588 36.929c-5.362 6.267-5.698 17.883-4.116 25.801h-62.338c-4.142 0-7.5 3.357-7.5 7.5v76.542c0 4.143 3.358 7.5 7.5 7.5l468.4-.002c4.142 0 7.5-3.357 7.5-7.5v-81.247c0-4.143-3.358-7.5-7.5-7.5s-7.5 3.357-7.5 7.5v73.747h-141.13v-135.913h141.13v25.331c0 4.143 3.358 7.5 7.5 7.5zm-286.085-260.29h31.81v17.493c0 8.77-7.135 15.904-15.905 15.904s-15.905-7.135-15.905-15.904zm0-20.55c0-3.442 2.8-6.243 6.243-6.243h33.837c8.06 0 7.301 12.349-.77 11.793h-39.31zm176.149 64.123v-11.206l16.158-4.337zm-281.341 129.373c-1.586 3.111-6.29 2.473-7.025-.909l-3.086-14.195h17.812zm211.397 78.138h-43.229c-1.83-.027-3.312-1.52-3.312-3.355v-6.94h30.41c7.132 0 13.297 4.219 16.131 10.295zm-132.387 0c-4.142 0-7.5 3.357-7.5 7.5v28.245h-8.454c.161-8.802-4.38-17.194-11.936-21.759l27.542-34.803c7.863-9.958 12.155-23.762 17.438-35.188h48.997c2.625 0 4.76 2.135 4.76 4.76v33.45c0 5.777-.738 12.088.322 17.795zm-46.729-17.192c4.11-4.663 7.525-9.878 10.151-15.503l28.246-60.551 89.779.011c14.64 0 26.55 11.91 26.55 26.549v41.391h-22.15v-25.95c0-10.896-8.864-19.76-19.76-19.76h-53.534c-3.115-.111-6.096 1.83-7.249 4.749-2.655 5.742-5.309 11.483-7.964 17.225-2.833 6.127-5.224 13.554-9.456 18.913l-32.107 40.572-26.154.001zm-32.431 49.275v-6.628l38.567-.002c5.55 0 9.897 4.821 9.639 10.292h-44.544c-2.02 0-3.662-1.643-3.662-3.662zm-69.473 18.662h141.133v61.542h-141.133zm297.266 61.542h-141.133v-97.287h141.133z"/><path d="m384.867 159.918-10.417 21.106-23.291 3.385c-5.488.797-9.961 4.567-11.675 9.841s-.312 10.954 3.659 14.824l16.854 16.43-3.979 23.198c-.937 5.465 1.267 10.884 5.753 14.143 4.486 3.261 10.321 3.682 15.23 1.102l20.833-10.952 20.833 10.952c10.366 5.449 22.962-3.707 20.982-15.244l-3.979-23.198 16.854-16.429c3.971-3.871 5.374-9.552 3.66-14.825s-6.187-9.044-11.674-9.841l-23.292-3.386-10.416-21.105c-2.455-4.973-7.424-8.062-12.969-8.061-5.543-.001-10.512 3.088-12.966 8.06zm23.028 28.001c5.231 10.592 23.416 9.729 33.378 11.177-6.319 6.16-16.879 13.231-19.758 21.807-2.87 8.55 1.686 20.624 3.167 29.258-7.442-3.912-18.028-12.311-26.847-12.237-8.963.075-19.248 8.243-26.847 12.237 1.492-8.698 5.88-20.626 3.167-29.258-2.704-8.603-13.487-15.693-19.758-21.808 8.733-1.269 21.431-.783 28.802-6.028 7.349-5.23 10.759-17.677 14.636-25.533z"/></g></svg>